<svg xmlns="http://www.w3.org/2000/svg" width="512" height="512" viewBox="0 0 512 512" fill="none">
  <defs>
    <linearGradient id="bg" x1="96" y1="56" x2="416" y2="456" gradientUnits="userSpaceOnUse">
      <stop stop-color="#00D4AA"/>
      <stop offset="0.48" stop-color="#0891B2"/>
      <stop offset="1" stop-color="#0F172A"/>
    </linearGradient>
    <linearGradient id="shine" x1="126" y1="90" x2="386" y2="422" gradientUnits="userSpaceOnUse">
      <stop stop-color="white" stop-opacity="0.55"/>
      <stop offset="0.38" stop-color="white" stop-opacity="0.12"/>
      <stop offset="1" stop-color="white" stop-opacity="0"/>
    </linearGradient>
    <filter id="shadow" x="32" y="40" width="448" height="448" filterUnits="userSpaceOnUse" color-interpolation-filters="sRGB">
      <feDropShadow dx="0" dy="28" stdDeviation="28" flood-color="#00D4AA" flood-opacity="0.28"/>
      <feDropShadow dx="0" dy="18" stdDeviation="18" flood-color="#020617" flood-opacity="0.45"/>
    </filter>
  </defs>

  <rect width="512" height="512" rx="116" fill="#0A0F1E"/>
  <g filter="url(#shadow)">
    <rect x="64" y="64" width="384" height="384" rx="96" fill="url(#bg)"/>
    <rect x="78" y="78" width="356" height="356" rx="86" stroke="url(#shine)" stroke-width="28"/>
  </g>

  <!-- Lucide-inspired wallet/card mark -->
  <path d="M154 180H342C365.196 180 384 198.804 384 222V332C384 355.196 365.196 374 342 374H170C146.804 374 128 355.196 128 332V206C128 191.641 139.641 180 154 180Z" fill="#08111F" fill-opacity="0.62" stroke="white" stroke-opacity="0.18" stroke-width="18" stroke-linejoin="round"/>
  <path d="M164 180L319 137C341.349 130.8 364 147.6 364 170.792V184" stroke="#E2FFF8" stroke-opacity="0.9" stroke-width="28" stroke-linecap="round" stroke-linejoin="round"/>
  <path d="M333 270H384V316H333C320.297 316 310 305.703 310 293C310 280.297 320.297 270 333 270Z" fill="#00D4AA" fill-opacity="0.96"/>
  <circle cx="337" cy="293" r="10" fill="#0A0F1E"/>

  <!-- Rupee symbol -->
  <path d="M202 162H314M202 211H314M314 162C314 162 303.5 249 218 249H202L301 350" stroke="#EFFFFB" stroke-width="34" stroke-linecap="round" stroke-linejoin="round"/>
</svg>
